<?xml version="1.0" encoding="iso-8859-1"?>
<!-- Generator: Adobe Illustrator 16.0.0, SVG Export Plug-In . SVG Version: 6.00 Build 0)  -->
<!DOCTYPE svg PUBLIC "-//W3C//DTD SVG 1.1//EN" "http://www.w3.org/Graphics/SVG/1.1/DTD/svg11.dtd">
<svg version="1.1" id="Capa_1" xmlns="http://www.w3.org/2000/svg" xmlns:xlink="http://www.w3.org/1999/xlink" x="0px" y="0px"
	 width="96.704px" height="96.704px" viewBox="0 0 96.704 96.704" style="enable-background:new 0 0 96.704 96.704;"
	 xml:space="preserve">
<g>
	<g>
		<path d="M95.609,46.765H64.479c-0.604,0-1.094,0.49-1.094,1.093v13.5c0,1.205-0.979,2.187-2.187,2.187H35.505
			c-1.206,0-2.187-0.981-2.187-2.187v-13.5c0-0.604-0.489-1.093-1.094-1.093H1.093C0.489,46.765,0,47.255,0,47.858v44.796
			c0,0.604,0.489,1.093,1.093,1.093h94.516c0.604,0,1.095-0.489,1.095-1.093V47.858C96.704,47.255,96.214,46.765,95.609,46.765z"/>
		<path d="M56.27,58.109c0.5,0,0.904-0.404,0.904-0.903v-8.37c0-0.5-0.404-0.904-0.904-0.904H40.434c-0.5,0-0.904,0.405-0.904,0.904
			v8.37c0,0.5,0.404,0.903,0.904,0.903H56.27z"/>
		<path d="M95.609,14.3H65.436V6.237c0-1.812-1.469-3.28-3.279-3.28H34.548c-1.812,0-3.28,1.469-3.28,3.28V14.3H1.093
			C0.489,14.3,0,14.79,0,15.394v25.11c0,0.604,0.489,1.093,1.093,1.093h94.516c0.604,0,1.095-0.489,1.095-1.093v-25.11
			C96.704,14.79,96.214,14.3,95.609,14.3z M37.829,9.517h21.047V14.3H37.829V9.517z"/>
	</g>
</g>
<g>
</g>
<g>
</g>
<g>
</g>
<g>
</g>
<g>
</g>
<g>
</g>
<g>
</g>
<g>
</g>
<g>
</g>
<g>
</g>
<g>
</g>
<g>
</g>
<g>
</g>
<g>
</g>
<g>
</g>
</svg>
