<?xml version="1.0" encoding="iso-8859-1"?>
<!-- Generator: Adobe Illustrator 19.0.0, SVG Export Plug-In . SVG Version: 6.00 Build 0)  -->
<svg version="1.1" id="Layer_1" xmlns="http://www.w3.org/2000/svg" xmlns:xlink="http://www.w3.org/1999/xlink" x="0px" y="0px"
	 viewBox="0 0 512 512" style="enable-background:new 0 0 512 512;" xml:space="preserve">
<path style="fill:#F4FFF9;" d="M482.358,29.642v452.716c0,5.953-4.826,10.779-10.779,10.779H29.642
	c-5.953,0-10.779-4.826-10.779-10.779V29.642c0-5.953,4.826-10.779,10.779-10.779h441.937
	C477.532,18.863,482.358,23.689,482.358,29.642z"/>
<path style="fill:#A89B80;" d="M482.358,460.8v32.337c0,5.953-4.826,10.779-10.779,10.779H18.863
	c-5.953,0-10.779-4.826-10.779-10.779V460.8c0-5.953,4.826-10.779,10.779-10.779h452.716
	C477.532,450.021,482.358,454.847,482.358,460.8z"/>
<path style="fill:#90B5BF;" d="M234.442,320.674v107.789H40.421V320.674c0-35.718,28.955-64.674,64.674-64.674h64.674
	C205.487,256,234.442,284.955,234.442,320.674z"/>
<path style="fill:#769CA5;" d="M137.432,428.463H40.421V320.674c0-35.718,28.955-64.674,64.674-64.674h32.337V428.463z"/>
<path style="fill:#EFDDAB;" d="M256,503.916h-97.011c-11.906,0-21.558-9.651-21.558-21.558V342.232
	c0-11.906,9.651-21.558,21.558-21.558H256c11.906,0,21.558,9.651,21.558,21.558v140.126
	C277.558,494.264,267.906,503.916,256,503.916z"/>
<path style="fill:#F4C064;" d="M180.547,180.547c0,23.812-19.304,43.116-43.116,43.116s-43.116-19.304-43.116-43.116
	s19.304-43.116,43.116-43.116C161.244,137.432,180.547,156.736,180.547,180.547z M137.432,417.684H83.537V353.01
	c0-5.953-4.826-10.779-10.779-10.779H40.421v97.011c0,11.906,9.651,21.558,21.558,21.558h75.453
	c11.906,0,21.558-9.651,21.558-21.558l0,0C158.989,427.336,149.338,417.684,137.432,417.684z"/>
<path style="fill:#F4AB53;" d="M137.432,137.432v86.232c-23.812,0-43.116-19.304-43.116-43.116S113.62,137.432,137.432,137.432z"/>
<path style="fill:#B28D5B;" d="M482.358,191.326v107.789c0,5.953-4.826,10.779-10.779,10.779h-32.337h-32.337
	c-5.953,0-10.779-4.826-10.779-10.779V191.326c0-5.953,4.826-10.779,10.779-10.779h21.558c5.953,0,10.779,4.826,10.779,10.779
	c0-5.953,4.826-10.779,10.779-10.779h21.558C477.532,180.547,482.358,185.373,482.358,191.326z"/>
<path style="fill:#7F5D3B;" d="M460.8,180.547v129.347h-10.779c-5.953,0-10.779-4.826-10.779-10.779
	c0,5.953-4.826,10.779-10.779,10.779h-21.558c-5.953,0-10.779-4.826-10.779-10.779V191.326c0-5.953,4.826-10.779,10.779-10.779
	h21.558c5.953,0,10.779,4.826,10.779,10.779c0-5.953,4.826-10.779,10.779-10.779H460.8z"/>
<path style="fill:#FF8355;" d="M385.347,18.863v107.789c0,5.953-4.826,10.779-10.779,10.779h-32.337h-32.337
	c-5.953,0-10.779-4.826-10.779-10.779V18.863c0-5.953,4.826-10.779,10.779-10.779h21.558c5.953,0,10.779,4.826,10.779,10.779
	c0-5.953,4.826-10.779,10.779-10.779h21.558C380.522,8.084,385.347,12.91,385.347,18.863z"/>
<path style="fill:#E55D30;" d="M363.789,8.084v129.347h-21.558h-32.337c-5.953,0-10.779-4.826-10.779-10.779V18.863
	c0-5.953,4.826-10.779,10.779-10.779h21.558c5.953,0,10.779,4.826,10.779,10.779c0-5.953,4.826-10.779,10.779-10.779H363.789z"/>
<path style="fill:#B28D5B;" d="M342.232,137.432h-32.337c-5.953,0-10.779-4.826-10.779-10.779V18.863
	c0-5.953,4.826-10.779,10.779-10.779h21.558c5.953,0,10.779,4.826,10.779,10.779V137.432z"/>
<path style="fill:#7F5D3B;" d="M320.674,137.432h-10.779c-5.953,0-10.779-4.826-10.779-10.779V18.863
	c0-5.953,4.826-10.779,10.779-10.779h10.779V137.432z"/>
<path style="fill:#769CA5;" d="M474.082,122.422l-18.669,10.779c-5.156,2.976-11.748,1.21-14.724-3.945l-53.895-93.349
	c-2.976-5.156-1.21-11.748,3.945-14.724l18.669-10.779c5.156-2.976,11.748-1.21,14.724,3.945l53.895,93.349
	C481.004,112.852,479.237,119.445,474.082,122.422z"/>
<path style="fill:#5B7A7F;" d="M464.747,127.811l-9.335,5.389c-5.156,2.976-11.748,1.21-14.724-3.945l-53.895-93.349
	c-2.976-5.156-1.21-11.748,3.945-14.724l9.335-5.389L464.747,127.811z"/>
<path style="fill:#FFA233;" d="M428.463,309.895h-21.558c-5.953,0-10.779-4.826-10.779-10.779V191.326
	c0-5.953,4.826-10.779,10.779-10.779h21.558c5.953,0,10.779,4.826,10.779,10.779v107.789
	C439.242,305.069,434.416,309.895,428.463,309.895z"/>
<path style="fill:#FF7E1D;" d="M417.684,309.895h-10.779c-5.953,0-10.779-4.826-10.779-10.779V191.326
	c0-5.953,4.826-10.779,10.779-10.779h10.779V309.895z"/>
<path style="fill:#C1B291;" d="M363.789,450.021h129.347c5.953,0,10.779,4.826,10.779,10.779v32.337
	c0,5.953-4.826,10.779-10.779,10.779H363.789c-5.953,0-10.779-4.826-10.779-10.779V460.8
	C353.01,454.847,357.836,450.021,363.789,450.021z"/>
<path style="fill:#DBCBA1;" d="M363.789,417.684h129.347c5.953,0,10.779,4.826,10.779,10.779V460.8
	c0,5.953-4.826,10.779-10.779,10.779H363.789c-5.953,0-10.779-4.826-10.779-10.779v-32.337
	C353.01,422.51,357.836,417.684,363.789,417.684z"/>
<path style="fill:#EFDDAB;" d="M363.789,385.347h129.347c5.953,0,10.779,4.826,10.779,10.779v32.337
	c0,5.953-4.826,10.779-10.779,10.779H363.789c-5.953,0-10.779-4.826-10.779-10.779v-32.337
	C353.01,390.173,357.836,385.347,363.789,385.347z"/>
<path d="M277.558,145.516h226.358c4.465,0,8.084-3.62,8.084-8.084c0-4.465-3.62-8.084-8.084-8.084h-25.663
	c8.908-5.235,11.95-16.728,6.776-25.692l0,0l-53.895-93.349c-2.519-4.363-6.587-7.485-11.454-8.788
	c-4.866-1.304-9.949-0.634-14.313,1.884l-13.55,7.823C388.879,4.619,382.253,0,374.568,0H353.01c-4.004,0-7.722,1.255-10.779,3.391
	C339.175,1.255,335.457,0,331.453,0h-21.558c-10.401,0-18.863,8.463-18.863,18.863v107.789c0,0.915,0.066,1.814,0.192,2.695h-13.666
	c-4.465,0-8.084,3.62-8.084,8.084C269.474,141.896,273.093,145.516,277.558,145.516z M394.78,28.183l18.67-10.779
	c0.482-0.278,0.951-0.361,1.339-0.361c0.29,0,0.534,0.045,0.706,0.092c0.403,0.108,1.15,0.414,1.636,1.256l53.895,93.348
	c0.743,1.287,0.301,2.939-0.986,3.682l-18.67,10.779c-1.286,0.742-2.938,0.3-3.681-0.987l-53.895-93.349
	C393.051,30.578,393.494,28.926,394.78,28.183z M393.432,126.653V63.573l37.974,65.774h-38.167
	C393.366,128.467,393.432,127.568,393.432,126.653z M307.2,18.863c0-1.485,1.209-2.695,2.695-2.695h21.558
	c1.485,0,2.695,1.209,2.695,2.695v21.558c0,4.465,3.62,8.084,8.084,8.084s8.084-3.62,8.084-8.084V18.863
	c0-1.485,1.209-2.695,2.695-2.695h21.558c1.485,0,2.695,1.209,2.695,2.695v107.789c0,1.485-1.209,2.695-2.695,2.695H353.01
	c-1.485,0-2.695-1.209-2.695-2.695V72.758c0-4.465-3.62-8.084-8.084-8.084s-8.084,3.62-8.084,8.084v53.895
	c0,1.485-1.209,2.695-2.695,2.695h-21.558c-1.485,0-2.695-1.209-2.695-2.695V18.863z M493.137,377.263H363.789
	c-10.401,0-18.863,8.463-18.863,18.863v45.811h-35.032c-4.465,0-8.084,3.62-8.084,8.084s3.62,8.084,8.084,8.084h35.032v35.032
	c0,10.401,8.463,18.863,18.863,18.863h129.347c10.401,0,18.863-8.463,18.863-18.863v-97.01
	C512,385.726,503.537,377.263,493.137,377.263z M495.832,493.137c0,1.485-1.209,2.695-2.695,2.695H363.789
	c-1.485,0-2.695-1.209-2.695-2.695v-13.666c0.881,0.127,1.78,0.192,2.695,0.192h129.347c0.915,0,1.814-0.066,2.695-0.192V493.137z
	 M495.832,460.8c0,1.485-1.209,2.695-2.695,2.695H363.789c-1.485,0-2.695-1.209-2.695-2.695v-10.779v-2.887
	c0.881,0.127,1.78,0.192,2.695,0.192h129.347c0.915,0,1.814-0.066,2.695-0.192V460.8z M495.832,428.463
	c0,1.485-1.209,2.695-2.695,2.695H363.789c-1.485,0-2.695-1.209-2.695-2.695v-32.337c0-1.485,1.209-2.695,2.695-2.695h35.032v13.474
	c0,4.465,3.62,8.084,8.084,8.084s8.084-3.62,8.084-8.084v-13.474h16.168v13.474c0,4.465,3.62,8.084,8.084,8.084
	c4.465,0,8.084-3.62,8.084-8.084v-13.474h16.168v13.474c0,4.465,3.62,8.084,8.084,8.084s8.084-3.62,8.084-8.084v-13.474h13.474
	c1.485,0,2.695,1.209,2.695,2.695V428.463z M256,312.589h-13.92c-4.035-36.328-34.925-64.674-72.312-64.674h-64.674
	c-40.119,0-72.758,32.639-72.758,72.758v118.568c0,0.908,0.041,1.808,0.122,2.695H8.084c-4.465,0-8.084,3.62-8.084,8.084
	s3.62,8.084,8.084,8.084H39.13c5.441,6.579,13.664,10.779,22.849,10.779h67.368v13.474c0,16.345,13.297,29.642,29.642,29.642H256
	c16.345,0,29.642-13.297,29.642-29.642V342.232C285.642,325.886,272.345,312.589,256,312.589z M137.432,452.716H61.979
	c-7.43,0-13.474-6.044-13.474-13.474V320.674c0-31.204,25.386-56.589,56.589-56.589h64.674c28.459,0,52.078,21.117,56.014,48.505
	h-66.793c-16.345,0-29.642,13.297-29.642,29.642V409.6H91.621v-67.368c0-4.465-3.62-8.084-8.084-8.084s-8.084,3.62-8.084,8.084
	v75.453c0,4.465,3.62,8.084,8.084,8.084h53.805c0.053,0.001,0.106,0.001,0.16,0c7.398,0.039,13.404,6.067,13.404,13.474
	C150.905,446.672,144.862,452.716,137.432,452.716z M269.474,482.358c0,7.43-6.044,13.474-13.474,13.474h-97.011
	c-7.43,0-13.474-6.044-13.474-13.474v-14.595c12.428-3.527,21.558-14.978,21.558-28.521s-9.13-24.994-21.558-28.521v-68.489
	c0-7.43,6.044-13.474,13.474-13.474H256c7.43,0,13.474,6.044,13.474,13.474V482.358z M253.305,396.126
	c0,4.465-3.62,8.084-8.084,8.084h-64.674c-4.465,0-8.084-3.62-8.084-8.084c0-4.465,3.62-8.084,8.084-8.084h64.674
	C249.686,388.042,253.305,391.662,253.305,396.126z M503.916,301.811H490.25c0.127-0.881,0.192-1.78,0.192-2.695V191.326
	c0-10.401-8.463-18.863-18.863-18.863h-21.558c-4.004,0-7.722,1.255-10.779,3.391c-3.057-2.136-6.775-3.391-10.779-3.391h-21.558
	c-10.401,0-18.863,8.463-18.863,18.863v107.789c0,0.915,0.066,1.814,0.192,2.695h-56.781c-4.465,0-8.084,3.62-8.084,8.084
	c0,4.465,3.62,8.084,8.084,8.084h172.463c4.465,0,8.084-3.62,8.084-8.084C512,305.43,508.38,301.811,503.916,301.811z
	 M474.274,299.116c0,1.485-1.209,2.695-2.695,2.695h-21.558c-1.485,0-2.695-1.209-2.695-2.695v-53.895
	c0-4.465-3.62-8.084-8.084-8.084c-4.465,0-8.084,3.62-8.084,8.084v53.895c0,1.485-1.209,2.695-2.695,2.695h-21.558
	c-1.485,0-2.695-1.209-2.695-2.695V191.326c0-1.485,1.209-2.695,2.695-2.695h21.558c1.485,0,2.695,1.209,2.695,2.695v21.558
	c0,4.465,3.62,8.084,8.084,8.084c4.465,0,8.084-3.62,8.084-8.084v-21.558c0-1.485,1.209-2.695,2.695-2.695h21.558
	c1.485,0,2.695,1.209,2.695,2.695V299.116z M137.432,231.747c28.231,0,51.2-22.969,51.2-51.2s-22.969-51.2-51.2-51.2
	s-51.2,22.969-51.2,51.2S109.2,231.747,137.432,231.747z M137.432,145.516c19.316,0,35.032,15.716,35.032,35.032
	s-15.716,35.032-35.032,35.032c-19.316,0-35.032-15.716-35.032-35.032S118.116,145.516,137.432,145.516z M253.305,460.8
	c0,4.465-3.62,8.084-8.084,8.084h-64.674c-4.465,0-8.084-3.62-8.084-8.084c0-4.465,3.62-8.084,8.084-8.084h64.674
	C249.686,452.716,253.305,456.335,253.305,460.8z M253.305,428.463c0,4.465-3.62,8.084-8.084,8.084h-43.116
	c-4.465,0-8.084-3.62-8.084-8.084s3.62-8.084,8.084-8.084h43.116C249.686,420.379,253.305,423.999,253.305,428.463z
	 M253.305,363.789c0,4.465-3.62,8.084-8.084,8.084h-64.674c-4.465,0-8.084-3.62-8.084-8.084s3.62-8.084,8.084-8.084h64.674
	C249.686,355.705,253.305,359.325,253.305,363.789z"/>
<g>
</g>
<g>
</g>
<g>
</g>
<g>
</g>
<g>
</g>
<g>
</g>
<g>
</g>
<g>
</g>
<g>
</g>
<g>
</g>
<g>
</g>
<g>
</g>
<g>
</g>
<g>
</g>
<g>
</g>
</svg>
